# xmcd CD database file
#
# Track frame offsets:
#	150
#	12655
#	23084
#	37334
#	50043
#	63253
#	76927
#	88779
#	99851
#	108863
#	122633
#	132912
#	145399
#	158644
#	172281
#	184675
#	196357
#	207214
#	218106
#	230758
#	243160
#
# Disc length: 3403 seconds
#
# Revision: 6
# Processed by: cddbd v1.5PL3 Copyright (c) Steve Scherf et al.
# Submitted via: CdAid (MTCDDB.DLL V2003.01.23)
#
DISCID=2a0d4915
DTITLE=Dean Martin - The Very Best Of Dean Martin
DYEAR=1998
DGENRE=Country
TTITLE0=Gentle On My Mind
TTITLE1=Memories Are Made Of This
TTITLE2=That's Amore
TTITLE3=Little Ole Wine Drinker, Me
TTITLE4=The Door Is Still Open  (To My Heart)
TTITLE5=Volare (Nel Blu Di Pinto Di Blu)
TTITLE6=In The Chapel In The Moonlight
TTITLE7=Ain't That A Kick In The Head
TTITLE8=You're Nobody 'Til Somebody Loves You
TTITLE9=Let Me Go Lover
TTITLE10=Somewhere There's A Someone
TTITLE11=Return To Me (Ritorna-Me)
TTITLE12=The Naughty Lady Of Shady Lane
TTITLE13=Rio Bravo
TTITLE14=Sway
TTITLE15=Powder Your Face With Sunshine (Smile! Smile! Smile!)
TTITLE16=I Will
TTITLE17=Kiss
TTITLE18=Under The Bridges Of Paris
TTITLE19=Houston
TTITLE20=Everybody Loves Somebody
EXTD=ID3G:   2  YEAR: 1998
EXTT0=
EXTT1=
EXTT2=
EXTT3=
EXTT4=
EXTT5=
EXTT6=
EXTT7=
EXTT8=
EXTT9=
EXTT10=
EXTT11=
EXTT12=
EXTT13=
EXTT14=
EXTT15=
EXTT16=
EXTT17=
EXTT18=
EXTT19=
EXTT20=
PLAYORDER=
